<svg width="640" height="480" viewBox="0 0 640 480" fill="none" xmlns="http://www.w3.org/2000/svg" role="img" aria-label="Заявка на судебную экспертизу">
  <rect width="640" height="480" rx="28" fill="#F3F6FB"/>
  <circle cx="84" cy="96" r="104" fill="#E5ECF8"/>
  <circle cx="566" cy="404" r="92" fill="#E5ECF8"/>

  <g>
    <rect x="122" y="60" width="330" height="360" rx="22" fill="#FFFFFF"/>
    <rect x="122" y="60" width="330" height="360" rx="22" stroke="#E4EBF5" stroke-width="2"/>

    <rect x="156" y="100" width="180" height="16" rx="8" fill="#16264F"/>
    <rect x="156" y="130" width="118" height="10" rx="5" fill="#C7D4E6"/>

    <rect x="156" y="170" width="262" height="52" rx="12" fill="#F4F7FC"/>
    <rect x="176" y="190" width="150" height="12" rx="6" fill="#D5DFEC"/>

    <rect x="156" y="238" width="262" height="52" rx="12" fill="#F4F7FC"/>
    <rect x="176" y="258" width="196" height="12" rx="6" fill="#D5DFEC"/>

    <g>
      <rect x="156" y="310" width="24" height="24" rx="7" fill="#FF8A00"/>
      <path d="M162 322l4 4 8-8.5" stroke="#FFFFFF" stroke-width="2.6" stroke-linecap="round" stroke-linejoin="round"/>
      <rect x="194" y="316" width="150" height="12" rx="6" fill="#DDE5F0"/>
    </g>
    <g>
      <rect x="156" y="352" width="24" height="24" rx="7" fill="#FF8A00"/>
      <path d="M162 364l4 4 8-8.5" stroke="#FFFFFF" stroke-width="2.6" stroke-linecap="round" stroke-linejoin="round"/>
      <rect x="194" y="358" width="196" height="12" rx="6" fill="#DDE5F0"/>
    </g>
  </g>

  <g>
    <rect x="392" y="128" width="150" height="118" rx="18" fill="#FFFFFF"/>
    <rect x="392" y="128" width="150" height="118" rx="18" stroke="#E4EBF5" stroke-width="2"/>
    <rect x="392" y="128" width="150" height="34" rx="18" fill="#24406E"/>
    <rect x="392" y="150" width="150" height="12" fill="#24406E"/>
    <rect x="414" y="180" width="24" height="20" rx="5" fill="#E4EBF5"/>
    <rect x="450" y="180" width="24" height="20" rx="5" fill="#FF8A00"/>
    <rect x="486" y="180" width="24" height="20" rx="5" fill="#E4EBF5"/>
    <rect x="414" y="210" width="24" height="20" rx="5" fill="#E4EBF5"/>
    <rect x="450" y="210" width="24" height="20" rx="5" fill="#E4EBF5"/>
    <rect x="486" y="210" width="24" height="20" rx="5" fill="#E4EBF5"/>
  </g>

  <g>
    <path d="M470 286c-27 0-49 22-49 49 0 35 49 79 49 79s49-44 49-79c0-27-22-49-49-49z" fill="#16264F"/>
    <circle cx="470" cy="334" r="19" fill="#FFFFFF"/>
    <circle cx="470" cy="334" r="8" fill="#FF8A00"/>
  </g>
</svg>
